<svg xmlns="http://www.w3.org/2000/svg" xmlns:xlink="http://www.w3.org/1999/xlink" width="500" zoomAndPan="magnify" viewBox="0 0 375 374.999991" height="500" preserveAspectRatio="xMidYMid meet" version="1.0"><defs><g/><clipPath id="a36c65c44d"><path d="M 32.308594 37.5 L 332.308594 37.5 L 332.308594 337.5 L 32.308594 337.5 Z M 32.308594 37.5 " clip-rule="nonzero"/></clipPath><clipPath id="ea4e3fa0f4"><path d="M 182.308594 37.5 C 99.46875 37.5 32.308594 104.65625 32.308594 187.5 C 32.308594 270.34375 99.46875 337.5 182.308594 337.5 C 265.152344 337.5 332.308594 270.34375 332.308594 187.5 C 332.308594 104.65625 265.152344 37.5 182.308594 37.5 Z M 182.308594 37.5 " clip-rule="nonzero"/></clipPath></defs><g clip-path="url(#a36c65c44d)"><g clip-path="url(#ea4e3fa0f4)"><path fill="#ffbd59" d="M 32.308594 37.5 L 332.308594 37.5 L 332.308594 337.5 L 32.308594 337.5 Z M 32.308594 37.5 " fill-opacity="1" fill-rule="nonzero"/></g></g><path stroke-linecap="round" transform="matrix(0.347222, 0, 0, 0.347222, 187.499992, 187.499988)" fill="none" stroke-linejoin="miter" d="M -419.996266 -141.997478 C -419.996266 -141.997478 -148.004991 -473.996259 -28.00123 -370.001249 C 66.262529 -288.303741 -421.998767 95.996294 -360.000011 169.998801 C -298.001255 244.001308 244.001295 -349.998747 360.000056 -259.998739 C 475.998817 -169.99873 -171.776243 293.512563 59.996278 380.002571 C 193.995041 429.997575 365.996306 205.998805 365.996306 205.998805 " stroke="#87a2f6" stroke-width="195" stroke-opacity="1" stroke-miterlimit="4"/><path stroke-linecap="butt" transform="matrix(0.494289, 0, 0, 0.494289, 21.862243, 52.878568)" fill="none" stroke-linejoin="miter" d="M 268.316795 325.997665 L 268.316795 243.492793 L 191.438692 243.492793 L 191.438692 325.997665 L 121.586148 325.997665 L 121.586148 108.497753 L 191.438692 108.497753 L 191.438692 187.841519 L 268.316795 187.841519 L 268.316795 108.497753 L 338.161437 108.497753 L 338.161437 325.997665 Z M 268.316795 325.997665 " stroke="#272727" stroke-width="45.050236" stroke-opacity="1" stroke-miterlimit="4"/><g fill="#ffffff" fill-opacity="1"><g transform="translate(70.402967, 214.016779)"><g><path d="M 84.078125 0 L 84.078125 -40.78125 L 46.09375 -40.78125 L 46.09375 0 L 11.5625 0 L 11.5625 -107.515625 L 46.09375 -107.515625 L 46.09375 -68.28125 L 84.078125 -68.28125 L 84.078125 -107.515625 L 118.609375 -107.515625 L 118.609375 0 Z M 84.078125 0 "/></g></g></g><path stroke-linecap="butt" transform="matrix(0.494289, 0, 0, 0.494289, 125.875544, 99.068093)" fill="none" stroke-linejoin="miter" d="M 139.134989 108.501557 L 327.228711 108.501557 L 327.228711 160.675615 L 208.987533 160.675615 L 208.987533 190.698221 L 310.174543 190.698221 L 310.174543 240.635797 L 208.987533 240.635797 L 208.987533 273.827412 L 329.465194 273.827412 L 329.465194 326.00147 L 139.134989 326.00147 Z M 139.134989 108.501557 " stroke="#272727" stroke-width="45.050236" stroke-opacity="1" stroke-miterlimit="4"/><g fill="#ffffff" fill-opacity="1"><g transform="translate(183.089495, 260.206305)"><g><path d="M 11.5625 -107.515625 L 104.546875 -107.515625 L 104.546875 -81.734375 L 46.09375 -81.734375 L 46.09375 -66.875 L 96.109375 -66.875 L 96.109375 -42.1875 L 46.09375 -42.1875 L 46.09375 -25.78125 L 105.640625 -25.78125 L 105.640625 0 L 11.5625 0 Z M 11.5625 -107.515625 "/></g></g></g></svg>